<svg width="36" height="36" viewBox="0 0 36 36" fill="none" xmlns="http://www.w3.org/2000/svg">
<g clip-path="url(#clip0_111_1055)">
<path d="M12.1381 0.474058L5.53809 7.09006L23.3101 11.3631C23.5601 11.4236 23.7885 11.5519 23.9704 11.7337C24.1523 11.9156 24.2805 12.1441 24.3411 12.3941L28.6131 30.1441L35.2281 23.5441C35.424 23.3486 35.5664 23.106 35.6417 22.8397C35.717 22.5734 35.7227 22.2922 35.6581 22.0231L31.6251 5.28506C31.5535 4.98879 31.4015 4.71803 31.1859 4.50259C30.9703 4.28716 30.6994 4.13541 30.4031 4.06406L13.6581 0.0440584C13.3891 -0.0202356 13.1081 -0.0144652 12.842 0.0608181C12.5759 0.136101 12.3335 0.278381 12.1381 0.474058" fill="white"/>
<path d="M20.031 14.437L7.991 11.637C7.72016 11.572 7.43719 11.5776 7.16914 11.6532C6.90109 11.7289 6.65693 11.872 6.46 12.069L0 18.529L12.932 21.738C13.182 21.7985 13.4104 21.9268 13.5923 22.1086C13.7742 22.2905 13.9024 22.519 13.963 22.769L17.099 35.801L23.709 29.192C23.9058 28.9947 24.0487 28.7503 24.1242 28.4821C24.1996 28.2139 24.2051 27.9309 24.14 27.66L21.252 15.66C21.1805 15.3636 21.0286 15.0928 20.8129 14.8774C20.5973 14.6619 20.3264 14.5102 20.03 14.439" fill="white"/>
</g>
<defs>
<clipPath id="clip0_111_1055">
<rect width="35.697" height="35.798" fill="white"/>
</clipPath>
</defs>
</svg>
